<svg width="14" height="14" viewBox="0 0 14 14" fill="none" xmlns="http://www.w3.org/2000/svg">
<g clip-path="url(#clip0_234_1419)">
<path fill-rule="evenodd" clip-rule="evenodd" d="M7.52963 0.922258C7.43431 0.715604 7.22751 0.583252 6.99993 0.583252C6.77235 0.583252 6.56555 0.715604 6.47023 0.922258L4.79662 4.55065L0.828636 5.02112C0.60264 5.04791 0.412861 5.20369 0.342535 5.42013C0.27221 5.63657 0.334179 5.87415 0.501263 6.02867L3.43489 8.7416L2.65616 12.6608C2.61181 12.884 2.70132 13.1126 2.88543 13.2464C3.06955 13.3801 3.31465 13.3946 3.51323 13.2835L6.99993 11.3318L10.4866 13.2835C10.6852 13.3946 10.9303 13.3801 11.1144 13.2464C11.2985 13.1126 11.3881 12.884 11.3437 12.6608L10.565 8.7416L13.4986 6.02867C13.6657 5.87415 13.7277 5.63657 13.6573 5.42013C13.587 5.20369 13.3972 5.04791 13.1712 5.02112L9.20325 4.55065L7.52963 0.922258Z" fill="#F2994A"/>
</g>
<defs>
<clipPath id="clip0_234_1419">
<rect width="14" height="14" fill="white"/>
</clipPath>
</defs>
</svg>
