<svg width="34" height="34" viewBox="0 0 34 34" fill="none" xmlns="http://www.w3.org/2000/svg">
<path fill-rule="evenodd" clip-rule="evenodd" d="M17.4161 33.3793C26.5134 33.3793 33.8882 25.9689 33.8882 16.8276C33.8882 7.68634 26.5134 0.275879 17.4161 0.275879C8.31888 0.275879 0.944092 7.68634 0.944092 16.8276C0.944092 25.9689 8.31888 33.3793 17.4161 33.3793ZM19.561 18.9826H25.0673C25.3909 18.9826 25.6522 18.7201 25.6522 18.3949V15.2601C25.6522 14.9348 25.3909 14.6723 25.0673 14.6723H19.561V9.13938C19.561 8.81415 19.2997 8.55161 18.9761 8.55161H15.8563C15.5327 8.55161 15.2714 8.81415 15.2714 9.13938V14.6723H9.76512C9.44145 14.6723 9.18018 14.9348 9.18018 15.2601V18.3949C9.18018 18.7201 9.44145 18.9826 9.76512 18.9826H15.2714V24.5156C15.2714 24.8408 15.5327 25.1033 15.8563 25.1033H18.9761C19.2997 25.1033 19.561 24.8408 19.561 24.5156V18.9826Z" fill="#E43636"/>
</svg>
