<svg width="24" height="24" viewBox="0 0 24 24" fill="none" xmlns="http://www.w3.org/2000/svg">
<path d="M3 2.25006C2.58579 2.25006 2.25 2.58585 2.25 3.00006C2.25 3.41427 2.58579 3.75006 3 3.75006V2.25006ZM4.99999 3.00006L5.74778 2.94254C5.71772 2.55179 5.39189 2.25006 4.99999 2.25006V3.00006ZM7.98403 15.8583L8.03746 16.6064H8.03746L7.98403 15.8583ZM18.3386 15.1187L18.2852 14.3706L18.3386 15.1187ZM20.1839 13.3446L19.4385 13.2618L20.1839 13.3446ZM21.7453 6.08287C21.7911 5.67119 21.4944 5.30038 21.0828 5.25464C20.6711 5.2089 20.3003 5.50555 20.2545 5.91723L21.7453 6.08287ZM5.84743 14.0168L5.09964 14.0743L5.84743 14.0168ZM3 3.75006H4.99999V2.25006H3V3.75006ZM8.03746 16.6064L18.392 15.8668L18.2852 14.3706L7.93059 15.1102L8.03746 16.6064ZM20.9293 13.4275L21.7453 6.08287L20.2545 5.91723L19.4385 13.2618L20.9293 13.4275ZM18.392 15.8668C19.7155 15.7722 20.7827 14.7462 20.9293 13.4275L19.4385 13.2618C19.3718 13.8612 18.8867 14.3276 18.2852 14.3706L18.392 15.8668ZM7.93059 15.1102C7.24465 15.1592 6.64796 14.6449 6.59522 13.9593L5.09964 14.0743C5.21568 15.5828 6.52839 16.7142 8.03746 16.6064L7.93059 15.1102ZM4.2522 3.05758L5.09964 14.0743L6.59522 13.9593L5.74778 2.94254L4.2522 3.05758Z" fill="#E43636"/>
<rect x="7.75" y="19.7504" width="1.50792" height="1.50792" stroke="#E43636" stroke-width="1.5" stroke-linejoin="round"/>
<rect x="16.749" y="19.7504" width="1.50792" height="1.50792" stroke="#E43636" stroke-width="1.5" stroke-linejoin="round"/>
<path fill-rule="evenodd" clip-rule="evenodd" d="M13.5059 8.27958V10.3135V11.1797C13.5059 11.4558 13.282 11.6797 13.0059 11.6797C12.7297 11.6797 12.5059 11.4558 12.5059 11.1797V10.3135V8.27958H10.2767H9.60586C9.27449 8.27958 9.00586 8.01096 9.00586 7.67959C9.00586 7.34822 9.27449 7.07959 9.60586 7.07959H10.2767H12.5059V5.0459V4.17969C12.5059 3.90354 12.7297 3.67969 13.0059 3.67969C13.282 3.67969 13.5059 3.90354 13.5059 4.17969V5.0459V7.07959H15.735H16.4059C16.7372 7.07959 17.0059 7.34822 17.0059 7.67959C17.0059 8.01096 16.7372 8.27958 16.4059 8.27958H15.735H13.5059Z" fill="#E43636"/>
</svg>
