<svg width="135" height="339" viewBox="0 0 135 339" fill="none" xmlns="http://www.w3.org/2000/svg">
<path d="M105.8 328L97 328.9L93.8 308.5L102.6 307.6L105.8 328Z" fill="#FFB573"/>
<path d="M96.0001 324.5L105.2 321.6C105.5 321.5 105.9 321.7 106 322L109 329.3C109.3 330.1 108.9 331 108.1 331.3C104.8 332.3 101.6 332.5 97.6001 334.3C92.9001 336.3 90.9001 339 85.8001 339C82.2001 339 81.4001 335.7 82.9001 335.2C89.9001 333.1 89.0001 331.3 94.1001 325.9C94.6001 325.3 95.2001 324.8 96.0001 324.5Z" fill="#263238"/>
<path opacity="0.2" d="M93.8 308.5L95.4 319L104.3 318.1L102.6 307.7L93.8 308.5Z" fill="black"/>
<path d="M100.2 51.4C88.6001 50 77.1001 51 65.6001 53.2C61.7001 54 58.6001 57.2 58.2001 61.2C56.9001 72.3 55.5001 97 61.1001 134L108.4 130C108.5 123.3 103.7 92.7 107.7 61C108.2 56.2 104.9 51.9 100.2 51.4Z" fill="white"/>
<path d="M72.6001 60.8L74.3001 64.2C74.5001 64.5 74.8001 64.8 75.2001 64.8L77.0001 64.9C77.3001 64.9 77.7001 64.8 77.9001 64.6L81.1001 62.3L77.2001 59.5L72.6001 60.8Z" fill="#263238"/>
<path d="M77.1 63.9C75.7 63.4 75 63.7 75 63.7C73.5 68.9 71.9 84 71.7 90.7C76.2 103.9 77.7 105.2 77.7 105.2L80 89.4C80 89.4 77.4 73.2 77.1 63.9Z" fill="#263238"/>
<path d="M90.2001 28.6C89.1001 35.1 88.2001 47 92.9001 51.2C89.5001 54.8 85.0001 59 77.3001 59.4C69.6001 59.9 70.8001 54.5 72.7001 51.7C79.9001 49.8 79.5001 44.4 78.1001 39.4L90.2001 28.6Z" fill="#FFB573"/>
<path d="M94.8 50.6C94.2 50.3 93.5001 50.1 93.1001 50C92.8001 49.9 92.5 50 92.4 50.3C91.7 51.6 89.4 57.2 77.3 59.4C79.3 60.6 82.0001 64.2 83.1001 66C86.7001 64.1 96.2 58.5 95.3 51.2C95.2 50.9 95 50.7 94.8 50.6Z" fill="#F5F5F5"/>
<path d="M72.7001 52C72.8001 51.5 72.4001 51.1 71.9001 51.2C71.4001 51.3 70.9001 51.5 70.7001 51.5C70.6001 51.5 70.5001 51.6 70.4001 51.6C69.5001 52.5 64.4001 59.8 69.1001 65.7C70.2001 64.1 73.5001 60.4 77.2001 59.4C73.8001 57.9 72.1001 55 72.7001 52Z" fill="#F5F5F5"/>
<path opacity="0.2" d="M85.2001 33L78.1001 39.4C78.4001 40.6 78.7001 41.8 78.8001 43C81.6001 42.5 85.3001 39.4 85.5001 36.5C85.6001 35 85.5001 33.7 85.2001 33Z" fill="black"/>
<path d="M75.6999 8.80001C69.4999 11.2 69.0999 16.3 69.6999 21.8C70.2999 27.3 76.2999 23.7 77.5999 20.2C78.9999 16.8 84.1999 5.50001 75.6999 8.80001Z" fill="#263238"/>
<path d="M95.3 19.9C93.6 28.6 93 33.8 88 37.8C80.5 43.8 70.3 38.6 69.4 29.6C68.6 21.5 71.5 8.60001 80.5 6.10001C89.4 3.60001 97.1 11.2 95.3 19.9Z" fill="#FFB573"/>
<path d="M95 27.1C87.7 27.5 89.2 23.3 90.6 20.9C91.9 18.5 89.2 14.6 91 12.5C87.8 13.8 84.5 12.7 80.3 9.8C77 7.5 72.9 16.7 68.9 12.1C65.1 7.8 68.6 1.2 77.7 0.200003C86.8 -0.899997 88.4 5.6 94.4 5C100.4 4.4 98.3 9.3 97.1 10.3C102 10.6 104.8 15.4 95 27.1Z" fill="#263238"/>
<path d="M95.8999 10.9C95.8999 10.9 99.5999 9.1 99.6999 4.5C101.7 8 101.5 11.9 95.8999 10.9Z" fill="#263238"/>
<path d="M76.9 29.2C79.6 29.6 81.4 28.2 81.5 28.1C81.6 28 81.6 27.9 81.5 27.8C81.4 27.7 81.3 27.7 81.2 27.8C81.2 27.8 79.1001 29.5 76.1001 28.6C76.0001 28.6 75.9 28.6 75.8 28.7C75.8 28.8 75.8 28.9 75.9 29C76.3 29.1 76.6 29.1 76.9 29.2Z" fill="#263238"/>
<path d="M97.0999 29.7C95.5999 31.6 93.3999 32.7 91.4999 32.9C88.5999 33.3 87.5999 30.6 88.7999 28C89.8999 25.7 92.6999 22.8 95.4999 23.6C98.1999 24.5 98.7999 27.6 97.0999 29.7Z" fill="#FFB573"/>
<path d="M94.2 219.1C94.5 193 97.9 130.8 97.9 130.8L61 133.9C61 133.9 68.3 198 72.8 224.6C77.4 252.3 91.5 317.2 91.5 317.2L106.5 315.9C106.5 316 101 239.3 94.2 219.1Z" fill="#263238"/>
<path d="M90.6 317.6L108.4 316.1L107.7 310.4L89.2 311.6L90.6 317.6Z" fill="#017DD9"/>
<path d="M82.2001 20.4C82.1001 21.1 81.7001 21.7 81.2001 21.6C80.7001 21.5 80.4001 20.9 80.5001 20.2C80.6001 19.5 81.0001 18.9 81.5001 19C82.0001 19.1 82.3001 19.7 82.2001 20.4Z" fill="#263238"/>
<path d="M74.1 19.7C74 20.4 73.6 21 73.1 20.9C72.6 20.8 72.3 20.2 72.4 19.5C72.5 18.8 72.9 18.2 73.4 18.3C73.8 18.4 74.1 19 74.1 19.7Z" fill="#263238"/>
<path d="M76.4001 20.6C76.4001 20.6 74.2001 24 72.1001 25.6C73.2001 26.7 75.4001 26.4 75.4001 26.4L76.4001 20.6Z" fill="#ED893E"/>
<path opacity="0.4" d="M68.8999 19.9C68.7999 21 69.8999 22 71.4999 22.2C73.0999 22.4 74.5999 21.5 74.6999 20.4" fill="#017DD9"/>
<path opacity="0.4" d="M78.3001 21C78.1001 22.1 79.2001 23.1 80.8001 23.4C82.4001 23.7 83.9001 22.9 84.1001 21.8" fill="#017DD9"/>
<path d="M81.4 23.7C81.2 23.7 81 23.7 80.9 23.7C80.1 23.6 79.4 23.3 78.8 22.8C78.3 22.3 78 21.7 78.1 21C78 20.9 77.5 20.7 76.5 20.6C75.5 20.5 74.9 20.5 74.8 20.6C74.7 21.8 73.1 22.7 71.4 22.4C70.6 22.3 69.9 22 69.3 21.5C68.8 21 68.5 20.4 68.6 19.7L69.1 19.8C69 20.3 69.2 20.8 69.7 21.2C70.2 21.6 70.8 21.9 71.5 22C72.9 22.2 74.2 21.5 74.3 20.5C74.4 19.9 75.5 20 76.5 20.1C77.5 20.2 78.6 20.5 78.5 21C78.4 21.5 78.6 22 79.1 22.4C79.6 22.8 80.2 23.1 80.9 23.2C81.6 23.3 82.3 23.2 82.8 22.9C83.3 22.6 83.6 22.2 83.7 21.7V21.5L96 23.1L95.9 23.6L84.2 22C84.1 22.5 83.7 23 83.1 23.3C82.6 23.6 82 23.7 81.4 23.7Z" fill="#263238"/>
<path d="M85.3 17.3C85.4 17.3 85.4 17.3 85.5 17.2C85.7 17.1 85.8 16.8 85.7 16.6C84.6 14.6 82.6 14.5 82.6 14.5C82.4 14.5 82.2 14.7 82.2 14.9C82.2 15.1 82.4 15.3 82.6 15.3C82.7 15.3 84.2 15.4 85.1 17C85.1 17.2 85.2 17.3 85.3 17.3Z" fill="#263238"/>
<path d="M71.4 16.1C71.5 16.1 71.7 16.1 71.8 15.9C73 14.4 74.5 14.6 74.6 14.6C74.8 14.6 75 14.5 75.1 14.2C75.1 14 75 13.8 74.7 13.7C74.6 13.7 72.7 13.5 71.2 15.3C71.1 15.5 71.1 15.7 71.3 15.9C71.3 16.1 71.3 16.1 71.4 16.1Z" fill="#263238"/>
<path d="M124.9 214.9C117.2 175.6 115.5 144.8 108.3 129.9L72.6001 133.9C72.6001 133.9 93.9001 192.5 104.3 217.5C115.1 243.5 136.4 287.9 136.4 287.9H154.2C154.2 288 137.5 232.8 124.9 214.9Z" fill="#263238"/>
<path d="M11.8 66.1L8.00001 63.7C6.70001 62.9 5.00001 63.1 3.90001 64.2L1.30001 67C0.10001 68.3 0.200005 70.2 1.6 71.4L3.50001 73C5.10001 74.4 7.00001 75.4 9.10001 76L14.7 77.7L18.4 73.7C19.4 69.3 11.8 66.1 11.8 66.1Z" fill="#FFB573"/>
<path d="M68.8999 64.2C67.4999 67.6 66.0999 70.8 64.5999 74.1C63.0999 77.3 61.5999 80.6 59.8999 83.7C58.1999 86.9 56.4999 90.1 54.3999 93.2C53.3999 94.8 52.2999 96.4 50.9999 98C49.6999 99.6 48.3999 101.2 46.3999 102.8C45.3999 103.6 44.2999 104.4 42.6999 105.1C42.2999 105.3 41.8999 105.4 41.3999 105.6L40.6999 105.8C40.3999 105.9 39.9999 105.9 39.5999 106C38.0999 106.2 36.8999 106 35.9999 105.7C34.0999 105.2 32.8999 104.5 31.7999 103.8C30.6999 103.1 29.8999 102.4 29.0999 101.8C25.8999 99.1 23.4999 96.3 21.1999 93.5C18.8999 90.7 16.6999 87.9 14.5999 85C12.4999 82.1 10.4999 79.3 8.3999 76.3L19.4999 69.2C22.9999 74.8 26.8999 80.4 31.0999 85.3C33.1999 87.8 35.3999 90.2 37.4999 91.9C37.9999 92.3 38.4999 92.7 38.8999 92.9C39.2999 93.1 39.5999 93.3 39.3999 93.2C39.2999 93.2 38.8999 93.1 38.2999 93.1C38.1999 93.1 37.8999 93.2 37.8999 93.2H37.7999C37.7999 93.2 37.7999 93.2 37.6999 93.2C37.6999 93.2 37.9999 93 38.3999 92.7C39.0999 92.1 39.9999 91.1 40.8999 90C41.7999 88.9 42.5999 87.6 43.3999 86.3C44.9999 83.6 46.4999 80.7 47.8999 77.8C49.2999 74.8 50.5999 71.8 51.8999 68.7C53.0999 65.6 54.2999 62.4 55.2999 59.4L68.8999 64.2Z" fill="#017DD9"/>
<g opacity="0.6">
<path d="M68.8999 64.2C67.4999 67.6 66.0999 70.8 64.5999 74.1C63.0999 77.3 61.5999 80.6 59.8999 83.7C58.1999 86.9 56.4999 90.1 54.3999 93.2C53.3999 94.8 52.2999 96.4 50.9999 98C49.6999 99.6 48.3999 101.2 46.3999 102.8C45.3999 103.6 44.2999 104.4 42.6999 105.1C42.2999 105.3 41.8999 105.4 41.3999 105.6L40.6999 105.8C40.3999 105.9 39.9999 105.9 39.5999 106C38.0999 106.2 36.8999 106 35.9999 105.7C34.0999 105.2 32.8999 104.5 31.7999 103.8C30.6999 103.1 29.8999 102.4 29.0999 101.8C25.8999 99.1 23.4999 96.3 21.1999 93.5C18.8999 90.7 16.6999 87.9 14.5999 85C12.4999 82.1 10.4999 79.3 8.3999 76.3L19.4999 69.2C22.9999 74.8 26.8999 80.4 31.0999 85.3C33.1999 87.8 35.3999 90.2 37.4999 91.9C37.9999 92.3 38.4999 92.7 38.8999 92.9C39.2999 93.1 39.5999 93.3 39.3999 93.2C39.2999 93.2 38.8999 93.1 38.2999 93.1C38.1999 93.1 37.8999 93.2 37.8999 93.2H37.7999C37.7999 93.2 37.7999 93.2 37.6999 93.2C37.6999 93.2 37.9999 93 38.3999 92.7C39.0999 92.1 39.9999 91.1 40.8999 90C41.7999 88.9 42.5999 87.6 43.3999 86.3C44.9999 83.6 46.4999 80.7 47.8999 77.8C49.2999 74.8 50.5999 71.8 51.8999 68.7C53.0999 65.6 54.2999 62.4 55.2999 59.4L68.8999 64.2Z" fill="#017DD9"/>
</g>
<path d="M95.1 48.9C91.3 55.9 78 82.6 76.4 99C70.5 84 71.8 50.8 71.8 50.8C68.9 50.9 63.6 52.2 59.5 53.8C56.9 54.8 55.1 57.3 54.9 60.1C54.3 68.2 53.4 87.5 56.5 111.6C60.6 143.9 64.5 194.1 64.5 194.1C64.5 194.1 97.5 192.7 123 187.3C119.9 162.6 109.2 121.2 109.2 110.1C109.1 95.8 109.4 68 109.9 56.3C110 52.9 107.7 49.9 104.4 49.2C99.8 48.4 95.1 48.9 95.1 48.9Z" fill="#017DD9"/>
<path d="M95.1 48.9C91.3 55.9 78 82.6 76.4 99C70.5 84 71.8 50.8 71.8 50.8C68.9 50.9 63.6 52.2 59.5 53.8C56.9 54.8 55.1 57.3 54.9 60.1C54.3 68.2 53.4 87.5 56.5 111.6C60.6 143.9 64.5 194.1 64.5 194.1C64.5 194.1 97.5 192.7 123 187.3C119.9 162.6 109.2 121.2 109.2 110.1C109.1 95.8 109.4 67.9 109.9 56.3C110 53 107.9 50 104.7 49.3C100 48.3 95.1 48.9 95.1 48.9Z" fill="#017DD9"/>
<path d="M87.3001 188.7C81.6001 157 77.0001 110.6 76.6001 105H77.1001C77.5001 110.6 82.0001 157 87.8001 188.7H87.3001Z" fill="white"/>
<path d="M84.3999 132.4H53.8999C52.6999 132.4 51.4999 131.4 51.2999 130.2L41.0999 82.8C40.7999 81.6 41.5999 80.6 42.7999 80.6H73.2999C74.4999 80.6 75.6999 81.6 75.8999 82.8L86.0999 130.2C86.3999 131.4 85.5999 132.4 84.3999 132.4Z" fill="white"/>
<path d="M83.4999 132.8H52.4999C51.2999 132.8 50.0999 131.8 49.7999 130.6L39.3999 82.4C39.0999 81.2 39.8999 80.2 41.0999 80.2H72.0999C73.2999 80.2 74.4999 81.2 74.7999 82.4L85.1999 130.6C85.4999 131.8 84.6999 132.8 83.4999 132.8Z" fill="#E43636"/>
<path d="M87.0001 105.6L79.3001 105.3C78.4001 105.3 77.4001 105.4 76.6001 105.8L72.6001 107.4C71.0001 108.1 70.2001 109.9 71.0001 111.5L72.6001 115C73.2001 116.4 74.8001 117.1 76.3001 116.7L80.7001 115.6C80.7001 115.6 89.0001 114.9 89.3001 110.6L87.0001 105.6Z" fill="#FFB573"/>
<path d="M108.3 53.1C110.2 56.1 112 58.8 113.7 61.8C115.4 64.7 117.1 67.7 118.7 70.7C120.3 73.8 121.8 76.9 123.2 80.2C123.9 81.9 124.5 83.7 125 85.6C125.5 87.6 126 89.6 125.9 92.5V92.8V92.9C125.9 92.9 125.9 93 125.9 93.1C125.9 93.5 125.8 93.8 125.7 94.2C125.6 94.5 125.5 94.8 125.4 95.1C125.3 95.4 125.2 95.7 125.1 95.9C124.6 96.9 124.1 97.7 123.6 98.3C122.6 99.6 121.7 100.3 120.8 101.1C119.1 102.5 117.4 103.5 115.8 104.4C112.6 106.2 109.4 107.6 106.3 108.9C103.2 110.2 100 111.5 96.9 112.6C93.7 113.8 90.6 114.9 87.3 116L83.5 103.4C86.5 102.6 89.6 101.6 92.5 100.6C95.5 99.5 98.5 98.4 101.3 97.2C104.2 96 107 94.7 109.4 93.3C110.6 92.6 111.8 91.8 112.6 91.2C113 90.9 113.3 90.6 113.3 90.5C113.3 90.5 113.2 90.6 113.1 90.8C113.1 90.9 113 90.9 113 91.1C113 91.2 112.9 91.3 112.9 91.5C112.9 91.7 112.8 91.8 112.8 92C112.8 92.1 112.8 92.1 112.8 92C112.8 91.6 112.6 90.4 112.3 89.2C111.9 88 111.4 86.7 110.9 85.3C109.7 82.6 108.3 79.9 106.8 77.2C105.2 74.5 103.6 71.8 101.8 69.2C100.1 66.6 98.2 63.9 96.4 61.5L108.3 53.1Z" fill="#017DD9"/>
<g opacity="0.7">
<path d="M108.3 53.1C110.2 56.1 112 58.8 113.7 61.8C115.4 64.7 117.1 67.7 118.7 70.7C120.3 73.8 121.8 76.9 123.2 80.2C123.9 81.9 124.5 83.7 125 85.6C125.5 87.6 126 89.6 125.9 92.5V92.8V92.9C125.9 92.9 125.9 93 125.9 93.1C125.9 93.5 125.8 93.8 125.7 94.2C125.6 94.5 125.5 94.8 125.4 95.1C125.3 95.4 125.2 95.7 125.1 95.9C124.6 96.9 124.1 97.7 123.6 98.3C122.6 99.6 121.7 100.3 120.8 101.1C119.1 102.5 117.4 103.5 115.8 104.4C112.6 106.2 109.4 107.6 106.3 108.9C103.2 110.2 100 111.5 96.9 112.6C93.7 113.8 90.6 114.9 87.3 116L83.5 103.4C86.5 102.6 89.6 101.6 92.5 100.6C95.5 99.5 98.5 98.4 101.3 97.2C104.2 96 107 94.7 109.4 93.3C110.6 92.6 111.8 91.8 112.6 91.2C113 90.9 113.3 90.6 113.3 90.5C113.3 90.5 113.2 90.6 113.1 90.8C113.1 90.9 113 90.9 113 91.1C113 91.2 112.9 91.3 112.9 91.5C112.9 91.7 112.8 91.8 112.8 92C112.8 92.1 112.8 92.1 112.8 92C112.8 91.6 112.6 90.4 112.3 89.2C111.9 88 111.4 86.7 110.9 85.3C109.7 82.6 108.3 79.9 106.8 77.2C105.2 74.5 103.6 71.8 101.8 69.2C100.1 66.6 98.2 63.9 96.4 61.5L108.3 53.1Z" fill="#017DD9"/>
</g>
<path d="M98.1999 87.8C98.0999 87.8 97.8999 87.7 97.8999 87.6C97.7999 87.4 97.7999 87.2 97.9999 87.1L99.5999 86.1C102.6 84.2 104.1 80.7 103.4 77.2L100.3 61.3C99.6999 58.2 97.1999 57 95.1999 57C93.1999 56.9 90.6999 57.9 89.7999 60.9L85.2999 76.5C84.2999 79.9 85.4999 83.5 88.2999 85.6L89.7999 86.7C89.9999 86.8 89.9999 87.1 89.8999 87.3C89.7999 87.5 89.4999 87.5 89.2999 87.4L87.7999 86.3C84.6999 84 83.3999 80 84.4999 76.3L88.9999 60.7C89.7999 57.9 92.2999 56.1 95.1999 56.2C98.1999 56.3 100.4 58.3 101 61.2L104.1 77.1C104.9 80.9 103.2 84.7 99.9999 86.8L98.3999 87.8C98.2999 87.8 98.2999 87.8 98.1999 87.8Z" fill="#263238"/>
<path d="M100.6 61.7L89.4 61.2C89.2 61.2 89 61 89 60.8C89 60.6 89.2 60.4 89.4 60.4L100.6 60.9C100.8 60.9 101 61.1 101 61.3C101 61.5 100.8 61.7 100.6 61.7Z" fill="#263238"/>
<path d="M95.0999 57C94.8999 57 94.6999 56.8 94.6999 56.6C94.6999 54.6 94.0999 51.1 92.1999 50.4C91.9999 50.3 91.8999 50.1 91.9999 49.9C92.0999 49.7 92.2999 49.6 92.4999 49.7C95.2999 50.8 95.4999 56.1 95.4999 56.7C95.4999 56.8 95.3999 57 95.0999 57Z" fill="#263238"/>
<path d="M60.7999 70.6C60.7999 70.6 60.6999 70.6 60.7999 70.6C60.4999 70.5 60.3999 70.3 60.3999 70.1C61.6999 63.5 67.1999 53.2 71.9999 50.1C72.1999 50 72.3999 50 72.4999 50.2C72.5999 50.4 72.5999 50.6 72.3999 50.7C67.7999 53.6 62.4999 63.7 61.1999 70.2C61.0999 70.5 60.9999 70.6 60.7999 70.6Z" fill="#263238"/>
<path d="M64.1 71.6C63.5 73.2 62.1 74.1 61.1 73.7C60.1 73.3 59.7 71.7 60.3 70.1C60.9 68.5 62.3 67.6 63.3 68C64.3 68.4 64.7 70 64.1 71.6Z" fill="white"/>
<path d="M90.5001 87.1C90.5001 87.8 90.0001 88.4 89.6001 88.4C89.1001 88.4 88.7001 87.8 88.8001 87C88.8001 86.3 89.3001 85.7 89.7001 85.7C90.1001 85.7 90.5001 86.4 90.5001 87.1Z" fill="white"/>
<path d="M99.0999 87.5C99.0999 88.2 98.5999 88.8 98.1999 88.8C97.7999 88.8 97.2999 88.2 97.3999 87.4C97.3999 86.7 97.8999 86.1 98.2999 86.1C98.6999 86.1 99.0999 86.7 99.0999 87.5Z" fill="white"/>
</svg>
