<svg width="15" height="16" viewBox="0 0 15 16" fill="none" xmlns="http://www.w3.org/2000/svg">
<path fill-rule="evenodd" clip-rule="evenodd" d="M1.98926 3.35473C1.98926 2.60465 2.59732 1.99658 3.34741 1.99658H5.82494C6.10109 1.99658 6.32494 1.77272 6.32494 1.49658C6.32494 1.22044 6.10109 0.996582 5.82494 0.996582H3.34741C2.04504 0.996582 0.989258 2.05236 0.989258 3.35473V12.6455C0.989258 13.9479 2.04504 15.0036 3.34741 15.0036H12.6382C13.9405 15.0036 14.9963 13.9479 14.9963 12.6455V10.168C14.9963 9.89181 14.7725 9.66795 14.4963 9.66795C14.2202 9.66795 13.9963 9.89181 13.9963 10.168V12.6455C13.9963 13.3956 13.3882 14.0036 12.6382 14.0036H3.34741C2.59732 14.0036 1.98926 13.3956 1.98926 12.6455V3.35473ZM14.4961 0.996582H9.99611C9.71997 0.996582 9.49611 1.22044 9.49611 1.49658C9.49611 1.77272 9.71997 1.99658 9.99611 1.99658H13.289L9.49718 5.78841C9.30192 5.98367 9.30192 6.30025 9.49718 6.49551C9.69245 6.69077 10.009 6.69077 10.2043 6.49551L13.9961 2.70369V5.99658C13.9961 6.27272 14.22 6.49658 14.4961 6.49658C14.7723 6.49658 14.9961 6.27272 14.9961 5.99658V1.49658C14.9961 1.22044 14.7723 0.996582 14.4961 0.996582Z" fill="#E43636"/>
</svg>
