<svg width="158" height="48" viewBox="0 0 158 48" fill="none" xmlns="http://www.w3.org/2000/svg">
<path d="M3.28123 10.327H15.8527C18.8572 10.327 21.5059 10.9068 23.7988 12.0664C26.1181 13.1997 27.9102 14.8074 29.1753 16.8894C30.4667 18.9715 31.1124 21.3962 31.1124 24.1635C31.1124 26.9308 30.4667 29.3555 29.1753 31.4375C27.9102 33.5196 26.1181 35.1405 23.7988 36.3001C21.5059 37.4334 18.8572 38 15.8527 38H3.28123V10.327ZM15.5364 32.7421C18.3037 32.7421 20.5044 31.9778 22.1384 30.4492C23.7988 28.8943 24.629 26.799 24.629 24.1635C24.629 21.528 23.7988 19.4459 22.1384 17.9173C20.5044 16.3623 18.3037 15.5848 15.5364 15.5848H9.68556V32.7421H15.5364ZM49.3438 38.4744C46.4711 38.4744 43.8751 37.855 41.5559 36.6163C39.263 35.3777 37.4576 33.6777 36.1399 31.5166C34.8485 29.3291 34.2027 26.8781 34.2027 24.1635C34.2027 21.4489 34.8485 19.011 36.1399 16.8499C37.4576 14.6624 39.263 12.9493 41.5559 11.7106C43.8751 10.4719 46.4711 9.85258 49.3438 9.85258C52.2166 9.85258 54.7994 10.4719 57.0923 11.7106C59.3852 12.9493 61.1905 14.6624 62.5083 16.8499C63.8261 19.011 64.4849 21.4489 64.4849 24.1635C64.4849 26.8781 63.8261 29.3291 62.5083 31.5166C61.1905 33.6777 59.3852 35.3777 57.0923 36.6163C54.7994 37.855 52.2166 38.4744 49.3438 38.4744ZM49.3438 33.0189C50.9779 33.0189 52.4538 32.6499 53.7715 31.9119C55.0893 31.1476 56.1172 30.0934 56.8551 28.7493C57.6194 27.4052 58.0016 25.8766 58.0016 24.1635C58.0016 22.4504 57.6194 20.9218 56.8551 19.5777C56.1172 18.2336 55.0893 17.1925 53.7715 16.4546C52.4538 15.6903 50.9779 15.3081 49.3438 15.3081C47.7098 15.3081 46.2339 15.6903 44.9162 16.4546C43.5984 17.1925 42.5574 18.2336 41.7931 19.5777C41.0551 20.9218 40.6861 22.4504 40.6861 24.1635C40.6861 25.8766 41.0551 27.4052 41.7931 28.7493C42.5574 30.0934 43.5984 31.1476 44.9162 31.9119C46.2339 32.6499 47.7098 33.0189 49.3438 33.0189ZM82.5416 38.4744C79.7216 38.4744 77.1651 37.8682 74.8722 36.6559C72.6057 35.4172 70.8135 33.7173 69.4957 31.5561C68.2043 29.3687 67.5586 26.9044 67.5586 24.1635C67.5586 21.4225 68.2043 18.9715 69.4957 16.8104C70.8135 14.6229 72.6057 12.923 74.8722 11.7106C77.1651 10.4719 79.7348 9.85258 82.5811 9.85258C84.9795 9.85258 87.1406 10.2743 89.0645 11.1176C91.0148 11.961 92.6488 13.1733 93.9666 14.7547L89.8552 18.5498C87.984 16.3887 85.6647 15.3081 82.8974 15.3081C81.1843 15.3081 79.6557 15.6903 78.3116 16.4546C76.9675 17.1925 75.9132 18.2336 75.1489 19.5777C74.411 20.9218 74.042 22.4504 74.042 24.1635C74.042 25.8766 74.411 27.4052 75.1489 28.7493C75.9132 30.0934 76.9675 31.1476 78.3116 31.9119C79.6557 32.6499 81.1843 33.0189 82.8974 33.0189C85.6647 33.0189 87.984 31.9251 89.8552 29.7376L93.9666 33.5328C92.6488 35.1405 91.0148 36.366 89.0645 37.2093C87.1142 38.0527 84.9399 38.4744 82.5416 38.4744Z" fill="#017DD9"/>
<path d="M109.066 22.1572C108.358 22.1572 107.82 22.3494 107.451 22.7337C107.098 23.1181 106.921 23.6869 106.921 24.4402V25.87H110.657V27.2536H106.967V38H105.33V27.2536H103.162V25.87H105.33V24.371C105.33 23.2641 105.645 22.3878 106.275 21.7421C106.921 21.0964 107.828 20.7735 108.997 20.7735C109.458 20.7735 109.904 20.8427 110.334 20.9811C110.765 21.1041 111.126 21.2886 111.418 21.5345L110.864 22.7568C110.388 22.3571 109.788 22.1572 109.066 22.1572ZM116.886 25.7777C118.469 25.7777 119.684 26.1775 120.529 26.9769C121.375 27.761 121.798 28.9294 121.798 30.4822V38H120.229V36.109C119.861 36.7393 119.315 37.2313 118.592 37.5849C117.885 37.9385 117.039 38.1153 116.055 38.1153C114.703 38.1153 113.626 37.7925 112.827 37.1467C112.028 36.501 111.628 35.6478 111.628 34.587C111.628 33.5569 111.997 32.7268 112.735 32.0964C113.488 31.4661 114.68 31.1509 116.309 31.1509H120.16V30.413C120.16 29.3676 119.868 28.5758 119.284 28.0377C118.7 27.4842 117.847 27.2075 116.724 27.2075C115.956 27.2075 115.218 27.3382 114.51 27.5996C113.803 27.8455 113.196 28.1914 112.689 28.6373L111.951 27.4151C112.566 26.8924 113.304 26.4926 114.164 26.2159C115.025 25.9238 115.932 25.7777 116.886 25.7777ZM116.309 36.8239C117.232 36.8239 118.023 36.6163 118.684 36.2013C119.345 35.7708 119.837 35.1558 120.16 34.3564V32.3732H116.355C114.28 32.3732 113.242 33.0957 113.242 34.5409C113.242 35.2481 113.511 35.8092 114.049 36.2243C114.587 36.624 115.341 36.8239 116.309 36.8239ZM127.813 28.2453C128.197 27.4304 128.766 26.8155 129.519 26.4004C130.288 25.9853 131.234 25.7777 132.356 25.7777V27.3689L131.964 27.3459C130.688 27.3459 129.689 27.7379 128.966 28.522C128.243 29.3061 127.882 30.4053 127.882 31.8197V38H126.245V25.87H127.813V28.2453ZM150.448 25.7777C151.97 25.7777 153.162 26.2159 154.023 27.0922C154.899 27.9685 155.337 29.2599 155.337 30.9664V38H153.7V31.1279C153.7 29.8672 153.393 28.9063 152.778 28.2453C152.178 27.5842 151.325 27.2536 150.218 27.2536C148.957 27.2536 147.966 27.6457 147.243 28.4297C146.52 29.1984 146.159 30.2669 146.159 31.6352V38H144.522V31.1279C144.522 29.8672 144.214 28.9063 143.599 28.2453C143 27.5842 142.139 27.2536 141.017 27.2536C139.771 27.2536 138.78 27.6457 138.042 28.4297C137.319 29.1984 136.958 30.2669 136.958 31.6352V38H135.32V25.87H136.889V28.0838C137.319 27.3459 137.919 26.777 138.687 26.3773C139.456 25.9776 140.34 25.7777 141.339 25.7777C142.354 25.7777 143.23 25.993 143.968 26.4234C144.722 26.8539 145.283 27.4919 145.652 28.3375C146.098 27.5381 146.736 26.9154 147.566 26.4696C148.411 26.0084 149.372 25.7777 150.448 25.7777Z" fill="#757575"/>
<path fill-rule="evenodd" clip-rule="evenodd" d="M49.4161 41.3793C58.5134 41.3793 65.8882 33.9689 65.8882 24.8276C65.8882 15.6863 58.5134 8.27588 49.4161 8.27588C40.3189 8.27588 32.9441 15.6863 32.9441 24.8276C32.9441 33.9689 40.3189 41.3793 49.4161 41.3793ZM51.561 26.9826H57.0673C57.3909 26.9826 57.6522 26.7201 57.6522 26.3949V23.2601C57.6522 22.9348 57.3909 22.6723 57.0673 22.6723H51.561V17.1394C51.561 16.8141 51.2997 16.5516 50.9761 16.5516H47.8563C47.5327 16.5516 47.2714 16.8141 47.2714 17.1394V22.6723H41.7651C41.4415 22.6723 41.1802 22.9348 41.1802 23.2601V26.3949C41.1802 26.7201 41.4415 26.9826 41.7651 26.9826H47.2714V32.5156C47.2714 32.8408 47.5327 33.1033 47.8563 33.1033H50.9761C51.2997 33.1033 51.561 32.8408 51.561 32.5156V26.9826Z" fill="#E43636"/>
</svg>
