<svg width="96" height="29" viewBox="0 0 96 29" fill="none" xmlns="http://www.w3.org/2000/svg">
<path d="M1.992 6.2H9.624C11.448 6.2 13.056 6.552 14.448 7.256C15.856 7.944 16.944 8.92 17.712 10.184C18.496 11.448 18.888 12.92 18.888 14.6C18.888 16.28 18.496 17.752 17.712 19.016C16.944 20.28 15.856 21.264 14.448 21.968C13.056 22.656 11.448 23 9.624 23H1.992V6.2ZM9.432 19.808C11.112 19.808 12.448 19.344 13.44 18.416C14.448 17.472 14.952 16.2 14.952 14.6C14.952 13 14.448 11.736 13.44 10.808C12.448 9.864 11.112 9.392 9.432 9.392H5.88V19.808H9.432ZM29.9561 23.288C28.2121 23.288 26.6361 22.912 25.2281 22.16C23.8361 21.408 22.7401 20.376 21.9401 19.064C21.1561 17.736 20.7641 16.248 20.7641 14.6C20.7641 12.952 21.1561 11.472 21.9401 10.16C22.7401 8.832 23.8361 7.792 25.2281 7.04C26.6361 6.288 28.2121 5.912 29.9561 5.912C31.7001 5.912 33.2681 6.288 34.6601 7.04C36.0521 7.792 37.1481 8.832 37.9481 10.16C38.7481 11.472 39.1481 12.952 39.1481 14.6C39.1481 16.248 38.7481 17.736 37.9481 19.064C37.1481 20.376 36.0521 21.408 34.6601 22.16C33.2681 22.912 31.7001 23.288 29.9561 23.288ZM29.9561 19.976C30.9481 19.976 31.8441 19.752 32.6441 19.304C33.4441 18.84 34.0681 18.2 34.5161 17.384C34.9801 16.568 35.2121 15.64 35.2121 14.6C35.2121 13.56 34.9801 12.632 34.5161 11.816C34.0681 11 33.4441 10.368 32.6441 9.92C31.8441 9.456 30.9481 9.224 29.9561 9.224C28.9641 9.224 28.0681 9.456 27.2681 9.92C26.4681 10.368 25.8361 11 25.3721 11.816C24.9241 12.632 24.7001 13.56 24.7001 14.6C24.7001 15.64 24.9241 16.568 25.3721 17.384C25.8361 18.2 26.4681 18.84 27.2681 19.304C28.0681 19.752 28.9641 19.976 29.9561 19.976ZM50.1101 23.288C48.3981 23.288 46.8461 22.92 45.4541 22.184C44.0781 21.432 42.9901 20.4 42.1901 19.088C41.4061 17.76 41.0141 16.264 41.0141 14.6C41.0141 12.936 41.4061 11.448 42.1901 10.136C42.9901 8.808 44.0781 7.776 45.4541 7.04C46.8461 6.288 48.4061 5.912 50.1341 5.912C51.5901 5.912 52.9021 6.168 54.0701 6.68C55.2541 7.192 56.2461 7.928 57.0461 8.888L54.5501 11.192C53.4141 9.88 52.0061 9.224 50.3261 9.224C49.2861 9.224 48.3581 9.456 47.5421 9.92C46.7261 10.368 46.0861 11 45.6221 11.816C45.1741 12.632 44.9501 13.56 44.9501 14.6C44.9501 15.64 45.1741 16.568 45.6221 17.384C46.0861 18.2 46.7261 18.84 47.5421 19.304C48.3581 19.752 49.2861 19.976 50.3261 19.976C52.0061 19.976 53.4141 19.312 54.5501 17.984L57.0461 20.288C56.2461 21.264 55.2541 22.008 54.0701 22.52C52.8861 23.032 51.5661 23.288 50.1101 23.288Z" fill="#017DD9"/>
<path d="M66.2126 13.382C65.7833 13.382 65.4566 13.4987 65.2326 13.732C65.018 13.9653 64.9106 14.3107 64.9106 14.768V15.636H67.1786V16.476H64.9386V23H63.9446V16.476H62.6286V15.636H63.9446V14.726C63.9446 14.054 64.136 13.522 64.5186 13.13C64.9106 12.738 65.4613 12.542 66.1706 12.542C66.4506 12.542 66.7213 12.584 66.9826 12.668C67.244 12.7427 67.4633 12.8547 67.6406 13.004L67.3046 13.746C67.0153 13.5033 66.6513 13.382 66.2126 13.382ZM70.96 15.58C71.9214 15.58 72.6587 15.8227 73.172 16.308C73.6854 16.784 73.942 17.4933 73.942 18.436V23H72.99V21.852C72.766 22.2347 72.4347 22.5333 71.996 22.748C71.5667 22.9627 71.0534 23.07 70.456 23.07C69.6347 23.07 68.9814 22.874 68.496 22.482C68.0107 22.09 67.768 21.572 67.768 20.928C67.768 20.3027 67.992 19.7987 68.44 19.416C68.8974 19.0333 69.6207 18.842 70.61 18.842H72.948V18.394C72.948 17.7593 72.7707 17.2787 72.416 16.952C72.0614 16.616 71.5434 16.448 70.862 16.448C70.3954 16.448 69.9474 16.5273 69.518 16.686C69.0887 16.8353 68.72 17.0453 68.412 17.316L67.964 16.574C68.3374 16.2567 68.7854 16.014 69.308 15.846C69.8307 15.6687 70.3814 15.58 70.96 15.58ZM70.61 22.286C71.17 22.286 71.6507 22.16 72.052 21.908C72.4534 21.6467 72.752 21.2733 72.948 20.788V19.584H70.638C69.378 19.584 68.748 20.0227 68.748 20.9C68.748 21.3293 68.9114 21.67 69.238 21.922C69.5647 22.1647 70.022 22.286 70.61 22.286ZM77.5939 17.078C77.8272 16.5833 78.1725 16.21 78.6299 15.958C79.0965 15.706 79.6705 15.58 80.3519 15.58V16.546L80.1139 16.532C79.3392 16.532 78.7325 16.77 78.2939 17.246C77.8552 17.722 77.6359 18.3893 77.6359 19.248V23H76.6419V15.636H77.5939V17.078ZM91.3356 15.58C92.2596 15.58 92.983 15.846 93.5056 16.378C94.0376 16.91 94.3036 17.694 94.3036 18.73V23H93.3096V18.828C93.3096 18.0627 93.123 17.4793 92.7496 17.078C92.3856 16.6767 91.8676 16.476 91.1956 16.476C90.4303 16.476 89.8283 16.714 89.3896 17.19C88.951 17.6567 88.7316 18.3053 88.7316 19.136V23H87.7376V18.828C87.7376 18.0627 87.551 17.4793 87.1776 17.078C86.8136 16.6767 86.291 16.476 85.6096 16.476C84.8536 16.476 84.2516 16.714 83.8036 17.19C83.365 17.6567 83.1456 18.3053 83.1456 19.136V23H82.1516V15.636H83.1036V16.98C83.365 16.532 83.729 16.1867 84.1956 15.944C84.6623 15.7013 85.199 15.58 85.8056 15.58C86.4216 15.58 86.9536 15.7107 87.4016 15.972C87.859 16.2333 88.1996 16.6207 88.4236 17.134C88.6943 16.6487 89.0816 16.2707 89.5856 16C90.099 15.72 90.6823 15.58 91.3356 15.58Z" fill="#757575"/>
<circle cx="30" cy="15" r="10" fill="#E43636"/>
<path d="M34.6449 16.3021H31.3021V19.6449C31.3021 19.8414 31.1435 20 30.947 20H29.053C28.8565 20 28.6979 19.8414 28.6979 19.6449V16.3021H25.3551C25.1586 16.3021 25 16.1435 25 15.947V14.053C25 13.8565 25.1586 13.6979 25.3551 13.6979H28.6979V10.3551C28.6979 10.1586 28.8565 10 29.053 10H30.947C31.1435 10 31.3021 10.1586 31.3021 10.3551V13.6979H34.6449C34.8414 13.6979 35 13.8565 35 14.053V15.947C35 16.1435 34.8414 16.3021 34.6449 16.3021Z" fill="white"/>
</svg>
