<svg width="14" height="14" viewBox="0 0 14 14" fill="none" xmlns="http://www.w3.org/2000/svg">
<path d="M10.3541 12.7073C5.85098 11.694 2.30601 8.14902 1.29265 3.64586C0.969321 2.20903 2.19391 1 3.66667 1L4.83333 1C5.20152 1 5.49689 1.29907 5.52915 1.66584C5.59305 2.39215 5.76047 3.08875 6.01657 3.74078L4.87711 4.88024C5.76401 6.73352 7.26647 8.23599 9.11975 9.12289L10.2592 7.98342C10.9112 8.23953 11.6078 8.40695 12.3342 8.47085C12.7009 8.50311 13 8.79848 13 9.16667L13 10.3333C13 11.8061 11.791 13.0307 10.3541 12.7073Z" stroke="#E43636" stroke-linecap="round" stroke-linejoin="round"/>
</svg>
