<svg width="36" height="36" viewBox="0 0 36 36" fill="none" xmlns="http://www.w3.org/2000/svg">
<path fill-rule="evenodd" clip-rule="evenodd" d="M9.76448 8.98851C9.8076 8.45646 9.9462 7.95096 10.1634 7.48853H4.5V9.34971L7.5 11.6227V31.5116H28.5V11.6491L31.875 9.37611V7.48853H18.3366C18.5538 7.95096 18.6924 8.45646 18.7355 8.98851H29.7653L27 10.8509V30.0116H9V10.8774L6.50712 8.98851H9.76448Z" fill="#219653"/>
<path fill-rule="evenodd" clip-rule="evenodd" d="M7.5 10.3125L5.625 7.875H9.9375L12.375 12.75H15.75L18.375 7.875H30.75L28.5 10.875V30.75H25.5V18H19.5V30.75H7.5V10.3125ZM10.5 18H15.75V23.25H10.5V18Z" fill="#219653"/>
<path d="M4.5 30.75C4.5 31.1642 4.83579 31.5 5.25 31.5H30.75C31.1642 31.5 31.5 31.1642 31.5 30.75C31.5 30.3358 31.1642 30 30.75 30H5.25C4.83579 30 4.5 30.3358 4.5 30.75Z" fill="#219653"/>
<path fill-rule="evenodd" clip-rule="evenodd" d="M18.75 9C18.75 11.4853 16.7353 13.5 14.25 13.5C11.7647 13.5 9.75 11.4853 9.75 9C9.75 6.51472 11.7647 4.5 14.25 4.5C16.7353 4.5 18.75 6.51472 18.75 9ZM15 6.75V8.25H16.5V9.75H15V11.25H13.5V9.75H12V8.25H13.5V6.75H15Z" fill="#219653"/>
</svg>
