<svg width="36" height="36" viewBox="0 0 36 36" fill="none" xmlns="http://www.w3.org/2000/svg">
<path d="M15.9471 5.59001L14.8294 6.226L13.9152 4.58533L11.9427 5.6683L12.8736 7.33888L11.7424 7.98255L12.5384 9.3612C11.9746 10.061 11.8688 11.062 12.3488 11.8874L12.7954 12.6553C10.7304 13.844 9.13995 15.2639 8.25097 17.0291C7.39389 18.7309 7.23164 20.6673 7.8027 22.8629C6.23776 24.2374 5.25 26.2532 5.25 28.4998C5.25 29.5665 5.47267 30.5811 5.87407 31.4998H30C30.4142 31.4998 30.75 31.164 30.75 30.7498C30.75 30.3356 30.4142 29.9998 30 29.9998H20.1C20.1983 29.5151 20.25 29.0135 20.25 28.4998C20.25 27.3474 19.9901 26.2557 19.5257 25.2802L28.5573 20.1905L27.8127 18.8884L18.7527 23.994L19.4972 25.2961L14.6117 28.0493L13.8671 26.7472L18.7481 23.9965C17.3796 22.1768 15.2023 20.9998 12.75 20.9998C11.4359 20.9998 10.2007 21.3378 9.1266 21.9316C8.79555 20.2732 8.99227 18.8919 9.5907 17.7037C10.3017 16.292 11.6273 15.0575 13.5494 13.952L15.7408 17.72C16.3654 18.7942 17.7458 19.1641 18.8239 18.5462L19.3244 18.2593L19.7812 19.1423L21.7866 18.1205L21.2788 17.1391L21.9151 16.7744C22.9932 16.1564 23.3608 14.7847 22.7361 13.7104L19.3441 7.87777C18.7985 6.93955 17.6763 6.53863 16.6826 6.86394L15.9471 5.59001Z" fill="#F2994A"/>
</svg>
