<svg width="36" height="36" viewBox="0 0 36 36" fill="none" xmlns="http://www.w3.org/2000/svg">
<path d="M6.27027 13.6207C6.27027 9.14773 9.1548 5 13.1047 5C15.8457 5 17.8797 6.86094 19.1351 9.50086C20.3905 6.86109 22.4245 5 25.1656 5C29.1159 5 32 9.14844 32 13.6207C32 23.1944 19.1351 30 19.1351 30C19.1351 30 10.4693 25.6931 7.36235 18.6284H15.0371L16.257 16.3897L17.6819 21.5384L21.0188 17.1094H25.1892V15.5469H20.2785L18.3181 18.1491L16.7159 12.3603L14.152 17.0659H6.78474C6.94516 17.6006 7.13948 18.1216 7.36235 18.6284L4 18.6284V17.0659L6.78474 17.0659C6.45676 15.9729 6.27027 14.8227 6.27027 13.6207Z" fill="#E43636"/>
</svg>
