<svg width="36" height="36" viewBox="0 0 36 36" fill="none" xmlns="http://www.w3.org/2000/svg">
<path d="M9.00003 7.5C9.82848 7.5 10.5 6.82843 10.5 6C10.5 5.17157 9.82848 4.5 9.00003 4.5C8.4448 4.5 7.96008 4.80165 7.70073 5.25H7.50003C6.25739 5.25 5.25003 6.25736 5.25003 7.5V14.25C4.83583 14.25 4.49651 14.5865 4.5341 14.999C4.70847 16.9124 5.54679 18.714 6.91642 20.0837C7.92078 21.088 9.15738 21.8066 10.5 22.1873V24C10.5 24.9798 11.1263 25.8133 12.0003 26.122C12.0323 29.0977 14.4544 31.5 17.4375 31.5C20.4406 31.5 22.875 29.0656 22.875 26.0625V23.0625C22.875 21.5092 24.1342 20.25 25.6875 20.25C27.2409 20.25 28.5 21.5092 28.5 23.0625V24.878C27.6261 25.1869 27 26.0203 27 27C27 28.2427 28.0074 29.25 29.25 29.25C30.4927 29.25 31.5 28.2427 31.5 27C31.5 26.0203 30.8739 25.1869 30 24.878V23.0625C30 20.6808 28.0692 18.75 25.6875 18.75C23.3058 18.75 21.375 20.6808 21.375 23.0625V26.0625C21.375 28.2371 19.6122 30 17.4375 30C15.2827 30 13.5322 28.2691 13.5005 26.1218C14.3742 25.8128 15 24.9795 15 24V22.1873C16.3427 21.8066 17.5794 21.088 18.5837 20.0837C19.9533 18.714 20.7916 16.9124 20.966 14.999C21.0036 14.5865 20.6643 14.25 20.25 14.25V7.5C20.25 6.25736 19.2427 5.25 18 5.25H17.7993C17.54 4.80165 17.0553 4.5 16.5 4.5C15.6716 4.5 15 5.17157 15 6C15 6.82843 15.6716 7.5 16.5 7.5C17.0553 7.5 17.54 7.19835 17.7993 6.75H18C18.4143 6.75 18.75 7.08579 18.75 7.5V14.25H18.9072C18.4929 14.25 18.1625 14.5874 18.1053 14.9977C17.9436 16.1555 17.4096 17.2373 16.5735 18.0734C15.5594 19.0874 14.1841 19.6571 12.75 19.6571C11.316 19.6571 9.94068 19.0874 8.92668 18.0734C8.0905 17.2373 7.5565 16.1555 7.39488 14.9977C7.33761 14.5874 7.00717 14.25 6.59296 14.25H6.75003V7.5C6.75003 7.08579 7.08582 6.75 7.50003 6.75H7.70073C7.96008 7.19835 8.4448 7.5 9.00003 7.5Z" fill="#BB6BD9"/>
</svg>
