<svg width="36" height="36" viewBox="0 0 36 36" fill="none" xmlns="http://www.w3.org/2000/svg">
<path fill-rule="evenodd" clip-rule="evenodd" d="M13.875 4.5C7.86893 4.5 3 9.36893 3 15.375C3 28.875 21 31.5 21 31.5V26.25H22.125C28.1311 26.25 33 21.3811 33 15.375C33 9.36893 28.1311 4.5 22.125 4.5H13.875ZM18 17.625C19.0355 17.625 19.875 16.7855 19.875 15.75C19.875 14.7145 19.0355 13.875 18 13.875C16.9645 13.875 16.125 14.7145 16.125 15.75C16.125 16.7855 16.9645 17.625 18 17.625ZM25.875 15.75C25.875 16.7855 25.0355 17.625 24 17.625C22.9645 17.625 22.125 16.7855 22.125 15.75C22.125 14.7145 22.9645 13.875 24 13.875C25.0355 13.875 25.875 14.7145 25.875 15.75ZM12 17.625C13.0355 17.625 13.875 16.7855 13.875 15.75C13.875 14.7145 13.0355 13.875 12 13.875C10.9645 13.875 10.125 14.7145 10.125 15.75C10.125 16.7855 10.9645 17.625 12 17.625Z" fill="#017DD9"/>
</svg>
