<svg width="40" height="40" viewBox="0 0 40 40" fill="none" xmlns="http://www.w3.org/2000/svg">
<path d="M29.1666 7.91667C29.1666 9.5275 27.8608 10.8333 26.2499 10.8333C24.6391 10.8333 23.3333 9.5275 23.3333 7.91667C23.3333 6.30583 24.6391 5 26.2499 5C27.8608 5 29.1666 6.30583 29.1666 7.91667Z" fill="#56CCF2"/>
<path fill-rule="evenodd" clip-rule="evenodd" d="M26.2499 9.16667C26.9403 9.16667 27.4999 8.607 27.4999 7.91667C27.4999 7.22631 26.9403 6.66667 26.2499 6.66667C25.5596 6.66667 24.9999 7.22631 24.9999 7.91667C24.9999 8.607 25.5596 9.16667 26.2499 9.16667ZM26.2499 10.8333C27.8608 10.8333 29.1666 9.5275 29.1666 7.91667C29.1666 6.30583 27.8608 5 26.2499 5C24.6391 5 23.3333 6.30583 23.3333 7.91667C23.3333 9.5275 24.6391 10.8333 26.2499 10.8333Z" fill="#56CCF2"/>
<path fill-rule="evenodd" clip-rule="evenodd" d="M15.8334 13.3334C14.9129 13.3334 14.1667 14.0795 14.1667 15C14.1667 15.9205 14.9129 16.6667 15.8334 16.6667H21.6667V33.3334C21.6667 34.2539 22.4129 35 23.3334 35C24.2539 35 25.0001 34.2539 25.0001 33.3334V25.8334H27.5001V33.3334C27.5001 34.2539 28.2462 35 29.1667 35C30.0872 35 30.8334 34.2539 30.8334 33.3334V23.2642C33.1982 22.8675 35.0001 20.8109 35.0001 18.3334C35.0001 15.572 32.7615 13.3334 30.0001 13.3334H15.8334ZM32.5001 18.3334C32.5001 17.4129 31.7539 16.6667 30.8334 16.6667V20C31.7539 20 32.5001 19.2539 32.5001 18.3334Z" fill="#56CCF2"/>
<path fill-rule="evenodd" clip-rule="evenodd" d="M5 26.6667C5 25.7462 5.74619 25 6.66667 25H17.5C18.4205 25 19.1667 25.7462 19.1667 26.6667V33.3333C19.1667 34.2538 18.4205 35 17.5 35H6.66667C5.74619 35 5 34.2538 5 33.3333V26.6667ZM8.33333 32.5V27.5H10V32.5H8.33333ZM14.1667 27.5V32.5H15.8333V27.5H14.1667Z" fill="#56CCF2"/>
<path fill-rule="evenodd" clip-rule="evenodd" d="M9.16675 23.3333C9.16675 22.4128 9.91291 21.6666 10.8334 21.6666H13.3334C14.2539 21.6666 15.0001 22.4128 15.0001 23.3333V25H13.3334V23.3333H10.8334V25H9.16675V23.3333Z" fill="#56CCF2"/>
</svg>
