<svg width="14" height="14" viewBox="0 0 14 14" fill="none" xmlns="http://www.w3.org/2000/svg">
<path fill-rule="evenodd" clip-rule="evenodd" d="M13 7C13 10.3137 10.3137 13 7 13C3.68629 13 1 10.3137 1 7C1 3.68629 3.68629 1 7 1C10.3137 1 13 3.68629 13 7ZM14 7C14 10.866 10.866 14 7 14C3.13401 14 0 10.866 0 7C0 3.13401 3.13401 0 7 0C10.866 0 14 3.13401 14 7ZM7.04883 3C7.04883 2.72386 6.82497 2.5 6.54883 2.5C6.27269 2.5 6.04883 2.72386 6.04883 3V7.15385V7.43324L6.28678 7.57968L9.28678 9.42583C9.52196 9.57055 9.82993 9.49723 9.97466 9.26205C10.1194 9.02687 10.0461 8.7189 9.81088 8.57417L7.04883 6.87445V3Z" fill="#E43636"/>
</svg>
